<?xml version="1.0" standalone="no"?>
<!DOCTYPE svg PUBLIC "-//W3C//DTD SVG 20010904//EN"
 "http://www.w3.org/TR/2001/REC-SVG-20010904/DTD/svg10.dtd">
<svg version="1.0" xmlns="http://www.w3.org/2000/svg"
 width="171.000000pt" height="128.000000pt" viewBox="0 0 171.000000 128.000000"
 preserveAspectRatio="xMidYMid meet">

<g transform="translate(0.000000,128.000000) scale(0.100000,-0.100000)"
fill="#000000" stroke="none">
<path d="M560 987 c3 -2 51 -16 107 -31 57 -14 120 -34 140 -43 135 -64 21
-197 -214 -253 -29 -6 -50 -16 -47 -21 3 -5 -9 -17 -26 -27 -17 -9 -39 -23
-48 -30 -15 -12 -13 -13 13 -7 113 25 385 147 439 198 91 87 5 159 -234 196
-41 7 -88 15 -105 18 -16 3 -28 3 -25 0z"/>
<path d="M663 595 c-51 -25 -97 -54 -103 -66 -29 -54 7 -87 158 -145 53 -20
112 -46 130 -56 56 -34 35 -2 -63 95 -118 117 -123 144 -35 196 63 37 7 22
-87 -24z"/>
</g>
</svg>
